<svg version="1.1" id="Layer_1" xmlns="http://www.w3.org/2000/svg" xmlns:xlink="http://www.w3.org/1999/xlink" x="0px" y="0px"
	 width="100%" viewBox="0 0 1536 1024" enable-background="new 0 0 1536 1024" xml:space="preserve">
<path fill="#FCFAFD" opacity="1.000000" stroke="none" 
	d="
M976.000000,1025.000000 
	C650.666687,1025.000000 325.833344,1025.000000 1.000000,1025.000000 
	C1.000000,683.666687 1.000000,342.333344 1.000000,1.000000 
	C513.000000,1.000000 1025.000000,1.000000 1537.000000,1.000000 
	C1537.000000,342.333344 1537.000000,683.666687 1537.000000,1025.000000 
	C1350.166626,1025.000000 1163.333374,1025.000000 976.000000,1025.000000 
M511.205078,406.731293 
	C510.990509,406.977814 510.775940,407.224304 510.505920,407.503113 
	C510.505920,407.503113 510.460785,407.457520 509.951660,407.693787 
	C509.577087,408.101929 509.202515,408.510101 508.223206,409.108948 
	C507.158234,410.112579 506.093231,411.116180 504.409180,412.354401 
	C498.747742,417.170685 493.473053,422.565826 487.334198,426.667542 
	C478.139648,432.810944 472.895447,440.752563 472.080231,452.425171 
	C470.414612,462.147064 468.748993,471.868958 467.032532,481.887390 
	C482.971588,481.887390 498.482910,481.887390 514.921631,482.044464 
	C535.628113,482.014679 556.334595,481.984924 577.782043,482.203369 
	C578.153381,482.962921 578.937866,483.788696 578.828491,484.471252 
	C578.151489,488.694885 577.251099,492.882111 576.467773,497.089417 
	C575.455872,502.523926 574.484131,507.965912 573.489685,513.434753 
	C589.953491,513.434753 605.670227,513.434753 621.627441,513.434753 
	C623.822327,502.801361 625.963806,492.426910 629.027222,482.128723 
	C635.517700,482.122253 642.020569,481.882477 648.492493,482.225555 
	C651.039246,482.360504 653.516907,483.797424 657.074463,484.994171 
	C669.880737,476.103455 683.989746,466.397858 697.933838,456.460846 
	C699.071838,455.649811 699.453735,453.280426 699.551758,451.598114 
	C699.873657,446.071167 699.902832,440.527161 700.421631,434.351807 
	C702.812317,424.265625 705.203003,414.179443 707.959106,403.577148 
	C712.758484,392.610687 720.064331,384.365509 732.996460,381.259796 
	C747.329224,380.528717 761.661987,379.797607 776.491455,379.298187 
	C776.670288,379.261200 776.849182,379.224213 777.696228,379.483002 
	C778.420837,379.523651 779.145508,379.564270 780.533264,379.881500 
	C782.789551,380.312347 785.101257,380.557068 787.291260,381.210175 
	C793.060791,382.930786 799.290955,383.939728 802.600037,390.692139 
	C803.936462,393.921600 801.403137,395.150543 799.456726,396.568604 
	C787.654480,405.166901 775.818787,413.719482 763.380188,422.510193 
	C742.177612,437.794708 720.974976,453.079224 699.114197,468.651154 
	C682.555054,480.245117 665.995911,491.839050 649.436768,503.432983 
	C652.357056,503.375153 654.738647,502.344086 657.081238,501.231140 
	C661.322937,499.215881 665.074341,498.697235 669.549072,501.682739 
	C673.468872,504.297974 678.474548,505.285583 683.603455,507.425293 
	C687.147461,508.304688 690.652832,509.406891 694.241577,510.028015 
	C721.485046,514.742920 748.905396,515.174805 776.245544,511.701935 
	C797.858582,508.956573 817.452148,501.345886 831.979431,482.753448 
	C837.320435,482.470276 842.661377,482.187134 848.915405,482.071777 
	C852.946289,482.027435 856.977234,481.983093 861.848999,482.119385 
	C863.563416,482.061005 865.277832,482.002655 867.656189,482.113037 
	C868.105530,482.054962 868.554810,481.996887 869.660217,482.104645 
	C870.103821,482.045776 870.547485,481.986908 871.916687,482.095032 
	C894.285889,482.095032 916.655090,482.095032 939.667664,482.095032 
	C937.590637,493.187195 935.715027,503.203949 933.789917,513.484741 
	C949.693726,513.484741 965.080505,513.484741 980.566406,513.484741 
	C982.203308,504.744934 983.941406,496.292114 985.315430,487.780457 
	C986.006287,483.501099 987.603455,481.709930 992.348877,482.002502 
	C1000.442932,482.501495 1008.589966,482.140015 1016.778992,482.140015 
	C1017.566589,478.336517 1018.290955,475.096130 1018.902466,471.834564 
	C1020.325928,464.242065 1021.695129,456.639404 1023.503784,448.399017 
	C1023.995728,445.690186 1024.487671,442.981384 1025.110596,439.550873 
	C1014.744263,439.550873 1004.897766,439.550873 994.670898,439.550873 
	C996.197144,430.922272 997.598267,423.001129 999.346069,414.508636 
	C1001.365234,404.387024 1003.384399,394.265411 1005.782410,383.490051 
	C1008.499512,369.570831 1011.216553,355.651611 1014.026123,341.258759 
	C991.540894,341.258759 969.779358,341.218109 948.018860,341.349823 
	C946.561951,341.358612 944.868835,342.394562 943.696777,343.421844 
	C926.327026,358.646362 909.026917,373.950226 891.074402,389.555969 
	C877.251404,401.600159 863.428467,413.644348 849.087708,425.119843 
	C848.903442,424.941589 848.719116,424.763367 848.592102,423.793121 
	C850.430481,414.531097 852.268860,405.269104 853.956238,395.938690 
	C853.956238,395.938690 854.200195,395.906250 854.200195,395.906250 
	C854.200195,395.906250 854.035828,396.056793 853.307983,395.968964 
	C837.363342,405.469269 821.499817,415.110535 805.414917,424.367157 
	C801.570435,426.579559 800.742615,429.474396 799.944214,433.405701 
	C798.461365,440.707062 796.046875,447.819183 793.496399,455.463074 
	C788.838867,463.603699 781.789185,469.034607 772.969421,471.487732 
	C752.220520,477.258759 731.277222,476.102173 710.857666,471.453979 
	C712.966736,470.146423 715.069153,468.827972 717.185913,467.532959 
	C736.516724,455.706390 755.849976,443.883881 775.734314,432.013489 
	C776.154907,431.675049 776.575500,431.336578 777.614014,430.896454 
	C778.439575,430.273743 779.265198,429.651062 780.663208,428.986359 
	C781.103760,428.638550 781.544250,428.290710 782.603760,427.843170 
	C783.444397,427.243011 784.285034,426.642853 785.812500,425.936005 
	C790.676636,423.041748 795.551880,420.166046 800.402771,417.249634 
	C813.275818,409.510223 826.138306,401.753265 839.000000,394.000000 
	C839.000000,394.000000 839.002502,394.004578 839.636658,393.908661 
	C840.497620,393.298157 841.358582,392.687653 842.897278,391.961761 
	C846.578125,389.740662 850.340881,387.639801 853.887329,385.221680 
	C854.888184,384.539307 855.861450,382.905853 855.818970,381.746277 
	C855.443359,371.495483 851.930115,362.742706 842.749084,356.183228 
	C833.932739,349.842834 823.941711,346.045410 813.445923,344.047516 
	C784.400208,338.518738 755.157104,338.441162 725.982422,342.830536 
	C701.491638,346.515167 680.428345,355.963165 668.649414,380.558258 
	C666.346497,387.182159 664.043518,393.806061 661.283142,401.088074 
	C658.802490,414.034332 656.321899,426.980591 653.407715,439.985413 
	C653.407715,439.985413 652.991394,440.120087 652.066345,439.980896 
	C646.524475,439.980896 640.982605,439.980896 635.396057,439.980896 
	C637.638306,428.573761 639.659241,418.292389 641.954590,407.257690 
	C643.228577,400.841431 644.502502,394.425171 646.016357,387.366333 
	C646.018311,386.912445 646.020264,386.458527 646.378235,385.415344 
	C646.539185,384.291351 646.700195,383.167389 647.110291,381.428101 
	C647.229980,379.990326 647.189209,378.517517 647.494507,377.120331 
	C650.033691,365.500031 652.636658,353.893677 655.295715,341.944458 
	C653.440002,341.746307 652.329407,341.528870 651.217896,341.523743 
	C631.228760,341.431671 611.239197,341.296082 591.250977,341.406067 
	C589.364197,341.416443 587.171326,342.633331 585.653748,343.919281 
	C573.410767,354.293671 561.357422,364.891693 549.123901,375.277374 
	C537.114624,385.472656 524.961792,395.498932 512.323914,405.832153 
	C512.092712,406.139465 511.861450,406.446777 511.797211,406.727509 
	C511.797211,406.727509 511.692200,406.594971 511.205078,406.731293 
M427.008698,415.080566 
	C435.401978,414.323303 443.816376,413.730804 452.169556,412.660706 
	C453.718292,412.462280 455.020355,410.338470 456.436249,409.103241 
	C454.930054,408.179718 453.453674,406.517242 451.912750,406.455109 
	C443.304291,406.108002 434.680237,406.147949 425.127625,405.938843 
	C421.016083,406.179413 416.839264,406.071655 412.823578,406.823944 
	C411.104645,407.146027 409.721252,409.259125 408.185425,410.558411 
	C409.856750,411.943237 411.382477,414.232544 413.228882,414.529785 
	C417.432068,415.206451 421.792633,414.905396 427.008698,415.080566 
M1058.312256,390.325989 
	C1064.741821,375.154633 1075.234131,364.611908 1091.809204,361.095795 
	C1098.149292,359.750824 1104.527954,358.587616 1110.891968,357.356720 
	C1111.020264,357.331940 1111.184814,357.494659 1111.332520,357.569916 
	C1111.264526,357.439789 1111.196533,357.309662 1111.285645,357.480347 
	C1105.014648,356.534302 1098.878174,355.926178 1092.888794,354.635193 
	C1082.250854,352.342194 1077.783569,346.631317 1077.458496,335.675415 
	C1077.384521,333.181458 1077.448364,330.683411 1077.448608,328.187225 
	C1077.448853,325.699707 1077.448730,323.212189 1077.448730,319.279694 
	C1071.613037,341.650879 1061.370483,358.411713 1037.849854,363.470306 
	C1039.770020,364.532928 1041.285645,364.827148 1042.806396,365.090942 
	C1054.379761,367.098694 1058.320679,371.282745 1058.476562,382.005707 
	C1058.519897,384.982513 1058.149536,387.965271 1058.009033,391.217682 
	C1057.861084,391.205566 1057.713257,391.193451 1057.565308,391.181427 
	C1057.692505,391.083893 1057.819702,390.986359 1058.312256,390.325989 
M651.844666,691.743530 
	C669.410461,690.502808 686.991333,689.442810 704.537842,687.971619 
	C722.917114,686.430603 741.288025,684.717529 759.617798,682.676636 
	C783.869873,679.976318 808.098938,677.043274 832.300110,673.917969 
	C858.654907,670.514465 884.954407,666.685303 911.300964,663.216003 
	C928.910583,660.897278 946.561707,658.893799 964.191650,656.728455 
	C975.802490,655.302490 987.408813,653.839722 999.017151,652.393372 
	C997.239258,651.724976 995.573364,652.011108 993.895264,652.158203 
	C970.229614,654.232178 946.553223,656.190308 922.897522,658.371277 
	C892.630859,661.161804 862.385254,664.180664 832.121460,667.003418 
	C805.316956,669.503418 778.516907,672.080750 751.683777,674.236511 
	C723.920349,676.467041 696.117981,678.211914 668.335815,680.212280 
	C661.218689,680.724731 654.113220,681.399658 646.066345,681.933777 
	C606.553528,682.472412 567.040710,683.011047 530.186646,683.513428 
	C567.970520,694.682556 609.434692,693.625854 651.844666,691.743530 
M529.782593,568.069214 
	C542.295349,561.820435 554.808105,555.571655 567.412170,549.277283 
	C566.997009,549.122925 566.497375,548.732117 566.163879,548.842590 
	C553.110840,553.168884 540.072937,557.540833 526.260071,561.969421 
	C515.773438,566.087708 505.117401,569.826782 494.841766,574.417358 
	C481.028442,580.588440 467.475494,587.356567 456.876953,598.661011 
	C448.799683,607.276245 448.561707,615.996460 456.592712,624.694580 
	C462.693634,631.302185 470.474060,635.329651 479.491333,638.514893 
	C484.119507,640.185486 488.747681,641.856079 493.057861,643.924072 
	C492.949097,644.054260 492.840332,644.184387 491.923340,644.269531 
	C482.293243,641.566101 472.663147,638.862671 462.295898,635.978455 
	C456.861115,632.920349 451.234253,630.155273 446.030884,626.744202 
	C434.586243,619.241699 432.694061,607.611511 442.001129,597.659851 
	C447.378693,591.909729 453.856018,586.845154 460.634888,582.810242 
	C484.969849,568.325562 511.530914,559.026367 538.563477,551.073364 
	C555.788391,546.005615 573.145752,541.387939 590.443665,536.568420 
	C587.417419,536.767822 584.533997,537.514343 581.632568,538.182678 
	C539.622742,547.859497 497.822296,558.266907 458.030701,575.288574 
	C444.206146,581.202332 430.808441,587.996094 421.219879,600.188354 
	C414.610046,608.592957 415.135925,618.304443 422.608154,625.899414 
	C432.327271,635.778198 444.554321,641.287292 458.112213,645.767944 
	C473.340118,649.723633 488.410034,654.521912 503.837311,657.414246 
	C521.729004,660.768555 539.934509,662.448914 558.846436,665.014038 
	C570.899170,666.013306 582.936584,667.557922 595.007812,667.895081 
	C618.111389,668.540344 641.233948,668.660156 664.348816,668.670593 
	C674.948730,668.675415 685.549072,667.905579 696.893860,667.393188 
	C699.702393,667.300476 702.515808,667.284363 705.318604,667.103210 
	C731.036316,665.441040 756.772095,664.005371 782.463501,662.002747 
	C814.106873,659.536255 845.705200,656.498474 877.337280,653.879944 
	C904.000671,651.672852 930.683044,649.694153 957.360168,647.654785 
	C964.204285,647.131592 971.060059,646.761719 977.910522,646.321411 
	C975.849548,645.327820 973.784973,645.330627 971.720459,645.327393 
	C958.893250,645.307068 946.065613,645.345337 933.238892,645.253296 
	C890.273193,644.944824 847.307129,644.651306 804.342407,644.231995 
	C772.538696,643.921570 740.736755,643.424133 708.014587,642.913574 
	C702.747131,642.641479 697.473083,642.460388 692.213257,642.082153 
	C660.806580,639.823364 629.403198,637.519226 597.191101,635.023438 
	C579.762207,631.690613 562.206726,628.897766 544.944458,624.853699 
	C531.181335,621.629395 517.864868,616.693726 506.796631,606.209839 
	C503.085999,601.104187 501.998199,595.702759 505.404694,590.058533 
	C506.927795,587.534851 508.556824,584.888062 510.737610,582.984253 
	C516.674011,577.801697 522.930176,572.985474 529.782593,568.069214 
M741.292358,614.249878 
	C741.292358,614.249878 741.685608,614.502747 741.710693,615.340942 
	C741.434509,617.046265 741.158264,618.751526 740.851807,620.643921 
	C749.574951,620.643921 757.665833,620.643921 766.120239,620.643921 
	C772.484192,589.573853 778.811401,558.683411 785.206482,527.461792 
	C776.171021,527.461792 767.757690,527.461792 759.047852,527.461792 
	C757.224060,536.249084 755.457825,544.759094 753.691589,553.269104 
	C753.373413,553.263000 753.055237,553.256958 752.737122,553.250854 
	C752.409790,551.801575 752.082458,550.352295 751.526245,547.889832 
	C739.012024,547.889832 726.542419,547.570618 714.098328,547.996521 
	C705.047852,548.306213 696.210327,550.506409 688.525940,555.538025 
	C673.177185,565.588135 668.828613,580.961121 669.689453,598.064087 
	C670.261230,609.424561 676.958923,616.915649 688.107178,619.488708 
	C706.282593,623.683594 724.070618,622.812683 741.292358,614.249878 
M947.872803,616.227905 
	C947.682190,617.610657 947.491638,618.993347 947.263428,620.648682 
	C955.817017,620.648682 963.897644,620.648682 972.367798,620.648682 
	C975.347168,605.458313 978.455933,590.495972 981.178528,575.463745 
	C983.635803,561.896301 978.825500,554.616333 965.578186,551.060303 
	C963.496704,550.501465 961.349060,549.823730 959.231628,549.822571 
	C941.943359,549.813171 924.654663,550.049622 907.366943,549.983459 
	C902.320923,549.964111 899.907104,551.886108 899.462158,556.999268 
	C899.151123,560.573181 897.990173,564.073120 897.259094,567.378662 
	C903.898621,567.378662 910.367432,567.395386 916.836121,567.374756 
	C926.492371,567.343933 936.157776,567.009155 945.801819,567.329712 
	C953.343140,567.580505 955.760742,570.645935 954.488037,577.302856 
	C953.579224,577.302856 952.609070,577.290466 951.639282,577.304688 
	C938.653137,577.495544 925.653809,577.400574 912.685547,577.988770 
	C904.456482,578.362122 896.451477,580.482544 890.085449,586.162842 
	C883.475769,592.060547 881.177856,599.680420 882.976196,608.313354 
	C884.562866,615.929932 890.516357,619.274658 897.300110,620.445129 
	C913.934509,623.315063 930.420227,623.588867 945.747925,614.674316 
	C946.193726,614.415039 947.210571,615.137634 947.872803,616.227905 
M790.749817,566.276306 
	C785.150879,573.722900 782.779541,582.381653 782.080994,591.422607 
	C780.874573,607.038879 787.839294,616.715942 803.168091,619.865601 
	C823.329590,624.008362 843.594116,622.222717 863.766235,619.343872 
	C864.826965,619.192444 866.409546,618.136047 866.605530,617.248474 
	C867.663879,612.455322 868.361267,607.582581 869.141052,602.985229 
	C855.702576,603.587280 842.602112,604.346252 829.490906,604.665894 
	C825.051575,604.774231 820.484192,604.198181 816.155762,603.172852 
	C810.232910,601.769714 808.272461,598.517700 808.530273,591.911987 
	C831.451172,591.911987 854.389282,591.911987 877.731140,591.911987 
	C878.575928,586.923279 879.543579,582.228027 880.142151,577.486145 
	C881.989014,562.854248 876.710815,554.688965 862.310425,551.002136 
	C845.873230,546.793884 829.303223,547.254761 812.930603,551.555176 
	C804.215759,553.844177 796.618225,558.209229 790.749817,566.276306 
M1028.932617,576.906494 
	C1026.787109,576.627014 1024.519043,576.687195 1022.531738,575.969666 
	C1020.662231,575.294617 1019.089050,573.799072 1017.385437,572.664551 
	C1018.984985,571.208496 1020.365479,569.005005 1022.231506,568.458191 
	C1025.691895,567.444153 1029.450195,566.924622 1033.059570,567.032166 
	C1047.131104,567.451538 1061.192749,568.197266 1075.801025,568.845703 
	C1078.026245,564.368408 1080.657715,559.073242 1083.471191,553.412109 
	C1063.935669,548.342041 1044.742676,547.579834 1025.407349,549.517212 
	C1016.263428,550.433289 1007.264282,552.189453 999.534973,557.729309 
	C992.056274,563.089417 988.097290,572.700867 990.420715,580.974060 
	C992.918762,589.869202 1000.556824,592.011475 1008.304993,592.909912 
	C1015.890076,593.789490 1023.600281,593.551453 1031.249023,593.934998 
	C1035.723877,594.159485 1040.250366,594.311584 1044.621216,595.170288 
	C1046.327026,595.505554 1047.669800,597.689636 1049.177856,599.031677 
	C1047.884766,600.372620 1046.799805,602.491699 1045.258179,602.904358 
	C1041.123657,604.010925 1036.778931,605.032837 1032.544067,604.935791 
	C1018.099976,604.604370 1003.667236,603.776794 988.841248,603.121399 
	C986.818115,607.837341 984.528442,613.174744 982.096985,618.842651 
	C1003.155029,622.718262 1024.194946,623.313293 1045.321167,621.238220 
	C1053.683105,620.416931 1061.713745,618.314575 1068.533447,612.997864 
	C1075.697998,607.412537 1078.119385,599.871277 1076.581665,591.245239 
	C1075.103882,582.954956 1068.286987,580.131409 1061.175781,579.235291 
	C1050.804321,577.928284 1040.303223,577.650330 1028.932617,576.906494 
M644.623230,533.941162 
	C638.376709,562.772400 632.130188,591.603699 625.773926,620.941589 
	C634.060608,620.941589 641.541626,620.794006 649.012085,621.010986 
	C652.198059,621.103455 653.604919,620.339539 654.294434,616.920105 
	C658.368896,596.714783 662.750916,576.571716 667.004822,556.402466 
	C669.117065,546.387573 671.176758,536.361694 673.307800,526.112244 
	C663.955322,526.112244 655.190613,526.112244 646.313354,526.112244 
	C645.777832,528.606934 645.293335,530.864319 644.623230,533.941162 
M1108.508667,497.992828 
	C1110.415894,497.815125 1112.323120,497.637451 1114.230347,497.459747 
	C1087.191895,486.749481 1059.701172,493.868378 1032.401978,494.558807 
	C1057.404175,497.252380 1082.273926,502.719696 1108.508667,497.992828 
M456.268188,533.358459 
	C461.862000,532.613464 467.458954,531.891541 473.048798,531.117737 
	C480.264984,530.118713 487.475281,529.077271 494.690063,528.067932 
	C494.766724,528.057251 494.869385,528.232605 494.959930,528.321106 
	C494.979279,528.184204 494.998627,528.047241 495.062592,527.594604 
	C476.650238,523.183228 458.530518,523.537537 440.606689,530.675110 
	C445.020447,534.511292 450.358917,532.973206 456.268188,533.358459 
M526.856628,344.487244 
	C524.329956,345.996307 521.803223,347.505371 520.052063,348.551270 
	C522.323669,350.309692 524.984192,352.741486 528.018250,354.544617 
	C529.334045,355.326599 531.715759,355.435272 533.100403,354.774658 
	C537.557983,352.648010 541.776672,350.020782 544.624756,348.412506 
	C539.755249,348.984985 534.973206,345.302551 530.984314,339.974091 
	C529.556458,341.523468 528.442078,342.732697 526.856628,344.487244 
M1066.254883,432.496185 
	C1077.609131,433.694977 1084.460571,432.895935 1087.242920,429.580414 
	C1078.577026,428.124329 1070.504272,428.668213 1062.549194,431.801697 
	C1063.517700,431.974060 1064.486206,432.146423 1066.254883,432.496185 
M435.553101,456.414307 
	C440.253540,459.601562 449.192108,459.242859 454.195099,455.527985 
	C447.912109,454.327118 441.825592,452.828308 435.553101,456.414307 
z"/>
<path fill="#DE2224" opacity="1.000000" stroke="none" 
	d="
M683.000549,506.992157 
	C678.474548,505.285583 673.468872,504.297974 669.549072,501.682739 
	C665.074341,498.697235 661.322937,499.215881 657.081238,501.231140 
	C654.738647,502.344086 652.357056,503.375153 649.436768,503.432983 
	C665.995911,491.839050 682.555054,480.245117 699.540283,468.931824 
	C703.434998,470.151825 706.903687,471.091187 710.372375,472.030518 
	C731.277222,476.102173 752.220520,477.258759 772.969421,471.487732 
	C781.789185,469.034607 788.838867,463.603699 794.139893,455.226929 
	C799.652710,452.031769 804.992798,451.799438 810.515564,451.879211 
	C813.429443,451.921295 816.401245,451.091339 819.273621,450.365265 
	C840.553406,444.986115 861.415283,437.889191 883.428955,435.532837 
	C887.601196,435.086243 890.112732,436.010895 892.524902,439.462372 
	C910.992859,439.658173 929.115112,439.658173 947.293762,439.658173 
	C949.402710,429.169434 951.426086,419.106140 953.573669,409.486267 
	C954.900085,410.950104 955.959045,412.402466 957.347107,412.863220 
	C958.604370,413.280579 960.236572,412.372650 961.676025,412.467194 
	C974.120667,413.284485 986.559082,414.196320 998.999390,415.079987 
	C997.598267,423.001129 996.197144,430.922272 994.670898,439.550873 
	C1004.897766,439.550873 1014.744263,439.550873 1025.110596,439.550873 
	C1024.487671,442.981384 1023.995728,445.690186 1023.011658,448.499817 
	C1021.574768,447.530823 1020.703003,445.616394 1019.673340,445.527344 
	C1012.624268,444.917664 1004.631897,442.444519 998.679504,444.856384 
	C989.264954,448.671112 980.063721,448.798706 970.486633,449.093475 
	C966.600586,449.213043 962.660461,450.064392 958.895996,451.120941 
	C951.442383,453.212830 944.206238,456.192932 936.669373,457.842560 
	C929.459778,459.420441 921.947083,459.554108 914.631714,460.723480 
	C904.901001,462.278900 895.216736,464.142365 885.542358,466.026672 
	C878.643005,467.370483 871.641235,468.489288 864.970703,470.607666 
	C860.023743,472.178772 855.438660,475.028198 850.902832,477.669647 
	C849.567078,478.447540 848.949219,480.458252 848.002319,481.903961 
	C842.661377,482.187134 837.320435,482.470276 831.220581,482.892944 
	C829.287048,482.502289 827.911682,482.205811 826.973755,481.400116 
	C823.535461,478.446686 819.766663,478.548798 815.719971,479.652954 
	C806.923523,482.053223 798.099060,484.088593 788.891296,481.845245 
	C786.664978,481.302856 784.206299,480.693024 782.040955,481.101776 
	C773.658569,482.683929 765.369141,484.750061 757.011841,486.475098 
	C747.476074,488.443390 737.924927,490.351532 728.341919,492.070862 
	C722.328613,493.149780 716.574036,494.103210 711.334106,498.046112 
	C707.389893,501.014069 702.403259,502.340393 696.782532,501.226624 
	C691.445923,500.169128 685.341431,499.752838 683.000549,506.992157 
z"/>
<path fill="#202530" opacity="1.000000" stroke="none" 
	d="
M740.943665,613.938354 
	C724.070618,622.812683 706.282593,623.683594 688.107178,619.488708 
	C676.958923,616.915649 670.261230,609.424561 669.689453,598.064087 
	C668.828613,580.961121 673.177185,565.588135 688.525940,555.538025 
	C696.210327,550.506409 705.047852,548.306213 714.098328,547.996521 
	C726.542419,547.570618 739.012024,547.889832 751.526245,547.889832 
	C752.082458,550.352295 752.409790,551.801575 752.737122,553.250854 
	C753.055237,553.256958 753.373413,553.263000 753.691589,553.269104 
	C755.457825,544.759094 757.224060,536.249084 759.047852,527.461792 
	C767.757690,527.461792 776.171021,527.461792 785.206482,527.461792 
	C778.811401,558.683411 772.484192,589.573853 766.120239,620.643921 
	C757.665833,620.643921 749.574951,620.643921 740.851807,620.643921 
	C741.158264,618.751526 741.434509,617.046265 741.793945,614.703186 
	C741.758423,613.794800 741.639648,613.524170 741.520874,613.253540 
	C741.328491,613.481812 741.136047,613.710083 740.943665,613.938354 
M697.681885,582.381958 
	C697.229675,584.655457 696.544800,586.911133 696.369751,589.205750 
	C695.880249,595.623535 698.570984,600.519104 704.550659,601.781494 
	C717.258423,604.464294 729.951233,604.306091 742.045105,598.654846 
	C743.144897,598.141052 744.531860,597.083618 744.762878,596.050049 
	C746.874084,586.605469 748.758606,577.110291 750.808960,567.145508 
	C739.163635,567.145508 728.190125,566.689819 717.273926,567.285461 
	C708.061218,567.788147 700.633545,571.811279 697.681885,582.381958 
z"/>
<path fill="#D71F28" opacity="1.000000" stroke="none" 
	d="
M848.458862,481.987854 
	C848.949219,480.458252 849.567078,478.447540 850.902832,477.669647 
	C855.438660,475.028198 860.023743,472.178772 864.970703,470.607666 
	C871.641235,468.489288 878.643005,467.370483 885.542358,466.026672 
	C895.216736,464.142365 904.901001,462.278900 914.631714,460.723480 
	C921.947083,459.554108 929.459778,459.420441 936.669373,457.842560 
	C944.206238,456.192932 951.442383,453.212830 958.895996,451.120941 
	C962.660461,450.064392 966.600586,449.213043 970.486633,449.093475 
	C980.063721,448.798706 989.264954,448.671112 998.679504,444.856384 
	C1004.631897,442.444519 1012.624268,444.917664 1019.673340,445.527344 
	C1020.703003,445.616394 1021.574768,447.530823 1022.802917,448.820740 
	C1021.695129,456.639404 1020.325928,464.242065 1018.902466,471.834564 
	C1018.290955,475.096130 1017.566589,478.336517 1016.778992,482.140015 
	C1008.589966,482.140015 1000.442932,482.501495 992.348877,482.002502 
	C987.603455,481.709930 986.006287,483.501099 985.315430,487.780457 
	C983.941406,496.292114 982.203308,504.744934 980.566406,513.484741 
	C965.080505,513.484741 949.693726,513.484741 933.789917,513.484741 
	C935.715027,503.203949 937.590637,493.187195 939.667664,482.095032 
	C916.655090,482.095032 894.285889,482.095032 871.303467,481.799561 
	C870.128174,481.649017 869.566162,481.793915 869.004150,481.938843 
	C868.554810,481.996887 868.105530,482.054962 867.071411,481.766693 
	C864.660522,481.593140 862.834290,481.765930 861.008118,481.938721 
	C856.977234,481.983093 852.946289,482.027435 848.458862,481.987854 
z"/>
<path fill="#FC5E11" opacity="1.000000" stroke="none" 
	d="
M512.871948,405.599396 
	C524.961792,395.498932 537.114624,385.472656 549.123901,375.277374 
	C561.357422,364.891693 573.410767,354.293671 585.653748,343.919281 
	C587.171326,342.633331 589.364197,341.416443 591.250977,341.406067 
	C611.239197,341.296082 631.228760,341.431671 651.217896,341.523743 
	C652.329407,341.528870 653.440002,341.746307 655.295715,341.944458 
	C652.636658,353.893677 650.033691,365.500031 647.494507,377.120331 
	C647.189209,378.517517 647.229980,379.990326 646.750854,381.927643 
	C646.268372,383.619659 646.145325,384.812164 646.022217,386.004639 
	C646.020264,386.458527 646.018311,386.912445 645.564697,387.759308 
	C639.211914,388.653412 633.318726,389.315918 627.407288,389.605713 
	C622.488159,389.846863 617.544861,389.750458 612.617126,389.619781 
	C607.594238,389.486664 602.577393,389.129272 597.545532,388.479675 
	C598.028809,386.251984 598.524353,384.414642 599.390686,381.202301 
	C594.423096,385.400818 590.520386,388.808899 586.501892,392.074493 
	C575.372620,401.118622 564.195068,410.103363 553.026611,418.704041 
	C553.923767,410.955597 553.045349,410.195435 545.481140,411.675598 
	C544.518372,411.863953 543.330444,412.229279 542.559143,411.860107 
	C535.871582,408.659424 529.272583,410.785248 522.695251,412.097626 
	C518.923706,412.850189 514.894531,413.383301 511.596954,415.158539 
	C507.800262,417.202423 506.184387,416.903046 505.028229,412.119781 
	C506.093231,411.116180 507.158234,410.112579 508.867615,409.001648 
	C509.828247,408.415436 510.144501,407.936462 510.460754,407.457520 
	C510.460785,407.457520 510.505920,407.503113 510.837769,407.551727 
	C511.343811,407.265198 511.518005,406.930084 511.692200,406.594971 
	C511.692200,406.594971 511.797211,406.727509 512.026184,406.685822 
	C512.460754,406.295898 512.666321,405.947632 512.871948,405.599396 
z"/>
<path fill="#F54815" opacity="1.000000" stroke="none" 
	d="
M513.994263,481.887390 
	C498.482910,481.887390 482.971588,481.887390 467.032532,481.887390 
	C468.748993,471.868958 470.414612,462.147064 472.804413,452.174744 
	C483.416595,451.536865 493.303131,451.637878 502.838776,448.011536 
	C509.916931,445.319763 516.979553,442.209503 524.970947,442.804626 
	C526.429993,442.913300 528.119934,440.899170 529.576477,439.709625 
	C530.500671,438.954865 531.190308,437.912964 531.763184,437.358429 
	C531.432190,437.842834 531.307068,437.958496 531.218811,438.097565 
	C531.145386,438.213257 531.115295,438.356415 531.065979,438.487396 
	C531.945618,438.767944 532.824280,439.289948 533.704956,439.293335 
	C550.522156,439.358490 567.340393,439.432922 584.155396,439.239838 
	C585.437866,439.225128 587.537109,437.420502 587.836548,436.120697 
	C590.514954,424.493408 592.874390,412.792664 595.480347,401.545959 
	C595.633118,404.164368 595.633118,406.350403 595.633118,407.242340 
	C604.473511,407.159882 612.981873,406.936127 621.485779,407.047180 
	C628.221069,407.135132 635.130188,404.048798 641.680176,408.010986 
	C639.659241,418.292389 637.638306,428.573761 635.396057,439.980896 
	C640.982605,439.980896 646.524475,439.980896 652.520752,440.423035 
	C651.360840,442.237701 649.938293,444.351196 648.092468,444.829010 
	C644.208618,445.834320 640.025818,445.653473 636.108459,446.569550 
	C631.853882,447.564453 627.851685,449.924225 623.579407,450.498199 
	C614.581665,451.707092 605.470581,452.786560 596.422913,452.664825 
	C590.205933,452.581116 584.423706,452.675568 578.722534,455.427948 
	C575.461975,457.002045 571.806885,457.744720 568.361511,458.953308 
	C561.269592,461.441071 554.276184,464.240845 547.099304,466.447174 
	C539.122437,468.899475 531.097778,471.734100 522.889465,472.749054 
	C514.101318,473.835693 513.997375,472.994934 513.994263,481.887390 
z"/>
<path fill="#202530" opacity="1.000000" stroke="none" 
	d="
M947.916992,615.815186 
	C947.210571,615.137634 946.193726,614.415039 945.747925,614.674316 
	C930.420227,623.588867 913.934509,623.315063 897.300110,620.445129 
	C890.516357,619.274658 884.562866,615.929932 882.976196,608.313354 
	C881.177856,599.680420 883.475769,592.060547 890.085449,586.162842 
	C896.451477,580.482544 904.456482,578.362122 912.685547,577.988770 
	C925.653809,577.400574 938.653137,577.495544 951.639282,577.304688 
	C952.609070,577.290466 953.579224,577.302856 954.488037,577.302856 
	C955.760742,570.645935 953.343140,567.580505 945.801819,567.329712 
	C936.157776,567.009155 926.492371,567.343933 916.836121,567.374756 
	C910.367432,567.395386 903.898621,567.378662 897.259094,567.378662 
	C897.990173,564.073120 899.151123,560.573181 899.462158,556.999268 
	C899.907104,551.886108 902.320923,549.964111 907.366943,549.983459 
	C924.654663,550.049622 941.943359,549.813171 959.231628,549.822571 
	C961.349060,549.823730 963.496704,550.501465 965.578186,551.060303 
	C978.825500,554.616333 983.635803,561.896301 981.178528,575.463745 
	C978.455933,590.495972 975.347168,605.458313 972.367798,620.648682 
	C963.897644,620.648682 955.817017,620.648682 947.263428,620.648682 
	C947.491638,618.993347 947.682190,617.610657 947.916992,615.815186 
M910.070801,595.831482 
	C907.839905,601.722961 909.544739,605.213623 916.147766,605.639282 
	C923.889038,606.138245 931.787964,606.028687 939.473389,605.047058 
	C947.394043,604.035278 950.827820,599.645264 952.309387,591.243958 
	C941.493225,591.243958 930.690735,590.949524 919.922180,591.425476 
	C916.737915,591.566223 913.649658,593.880249 910.070801,595.831482 
z"/>
<path fill="#ED351C" opacity="1.000000" stroke="none" 
	d="
M514.457947,481.965942 
	C513.997375,472.994934 514.101318,473.835693 522.889465,472.749054 
	C531.097778,471.734100 539.122437,468.899475 547.099304,466.447174 
	C554.276184,464.240845 561.269592,461.441071 568.361511,458.953308 
	C571.806885,457.744720 575.461975,457.002045 578.722534,455.427948 
	C584.423706,452.675568 590.205933,452.581116 596.422913,452.664825 
	C605.470581,452.786560 614.581665,451.707092 623.579407,450.498199 
	C627.851685,449.924225 631.853882,447.564453 636.108459,446.569550 
	C640.025818,445.653473 644.208618,445.834320 648.092468,444.829010 
	C649.938293,444.351196 651.360840,442.237701 652.983276,440.492645 
	C652.991394,440.120087 653.407715,439.985413 654.031616,439.966553 
	C659.018250,439.287231 663.394226,438.702820 667.739685,437.943939 
	C671.796997,437.235443 676.221802,437.133881 679.768066,435.344604 
	C685.163574,432.622284 690.284485,433.399109 695.651794,434.360992 
	C697.106873,434.621735 698.579773,434.782867 700.044495,434.989716 
	C699.902832,440.527161 699.873657,446.071167 699.551758,451.598114 
	C699.453735,453.280426 699.071838,455.649811 697.933838,456.460846 
	C683.989746,466.397858 669.880737,476.103455 657.074463,484.994171 
	C653.516907,483.797424 651.039246,482.360504 648.492493,482.225555 
	C642.020569,481.882477 635.517700,482.122253 628.189209,482.116180 
	C625.465027,482.025970 623.514282,482.228912 621.705750,481.813263 
	C617.722595,480.897797 613.757996,478.585846 609.880737,478.776276 
	C598.908630,479.315155 587.984253,480.826752 577.041077,481.955170 
	C556.334595,481.984924 535.628113,482.014679 514.457947,481.965942 
z"/>
<path fill="#202530" opacity="1.000000" stroke="none" 
	d="
M790.954346,565.982178 
	C796.618225,558.209229 804.215759,553.844177 812.930603,551.555176 
	C829.303223,547.254761 845.873230,546.793884 862.310425,551.002136 
	C876.710815,554.688965 881.989014,562.854248 880.142151,577.486145 
	C879.543579,582.228027 878.575928,586.923279 877.731140,591.911987 
	C854.389282,591.911987 831.451172,591.911987 808.530273,591.911987 
	C808.272461,598.517700 810.232910,601.769714 816.155762,603.172852 
	C820.484192,604.198181 825.051575,604.774231 829.490906,604.665894 
	C842.602112,604.346252 855.702576,603.587280 869.141052,602.985229 
	C868.361267,607.582581 867.663879,612.455322 866.605530,617.248474 
	C866.409546,618.136047 864.826965,619.192444 863.766235,619.343872 
	C843.594116,622.222717 823.329590,624.008362 803.168091,619.865601 
	C787.839294,616.715942 780.874573,607.038879 782.080994,591.422607 
	C782.779541,582.381653 785.150879,573.722900 790.954346,565.982178 
M850.271729,578.678162 
	C851.735291,578.678162 853.198853,578.678162 854.589478,578.678162 
	C855.784302,571.302490 853.368835,566.832886 846.569275,566.168640 
	C839.395142,565.467834 832.002869,565.708679 824.836792,566.595825 
	C818.262756,567.409790 813.654175,571.643066 811.077332,578.678528 
	C824.167480,578.678528 836.741882,578.678528 850.271729,578.678162 
z"/>
<path fill="#202530" opacity="1.000000" stroke="none" 
	d="
M1029.395020,576.920105 
	C1040.303223,577.650330 1050.804321,577.928284 1061.175781,579.235291 
	C1068.286987,580.131409 1075.103882,582.954956 1076.581665,591.245239 
	C1078.119385,599.871277 1075.697998,607.412537 1068.533447,612.997864 
	C1061.713745,618.314575 1053.683105,620.416931 1045.321167,621.238220 
	C1024.194946,623.313293 1003.155029,622.718262 982.096985,618.842651 
	C984.528442,613.174744 986.818115,607.837341 988.841248,603.121399 
	C1003.667236,603.776794 1018.099976,604.604370 1032.544067,604.935791 
	C1036.778931,605.032837 1041.123657,604.010925 1045.258179,602.904358 
	C1046.799805,602.491699 1047.884766,600.372620 1049.177856,599.031616 
	C1047.669800,597.689636 1046.327026,595.505554 1044.621216,595.170288 
	C1040.250366,594.311584 1035.723877,594.159485 1031.249023,593.934998 
	C1023.600281,593.551453 1015.890076,593.789490 1008.304993,592.909912 
	C1000.556824,592.011475 992.918762,589.869202 990.420715,580.974060 
	C988.097290,572.700867 992.056274,563.089417 999.534973,557.729309 
	C1007.264282,552.189453 1016.263428,550.433289 1025.407349,549.517212 
	C1044.742676,547.579834 1063.935669,548.342041 1083.471191,553.412109 
	C1080.657715,559.073242 1078.026245,564.368408 1075.801025,568.845703 
	C1061.192749,568.197266 1047.131104,567.451538 1033.059570,567.032166 
	C1029.450195,566.924622 1025.691895,567.444153 1022.231506,568.458191 
	C1020.365479,569.005005 1018.984985,571.208496 1017.385437,572.664551 
	C1019.089050,573.799072 1020.662231,575.294617 1022.531738,575.969666 
	C1024.519043,576.687195 1026.787109,576.627014 1029.395020,576.920105 
z"/>
<path fill="#FC5E11" opacity="1.000000" stroke="none" 
	d="
M669.117798,380.041718 
	C680.428345,355.963165 701.491638,346.515167 725.982422,342.830536 
	C755.157104,338.441162 784.400208,338.518738 813.445923,344.047516 
	C823.941711,346.045410 833.932739,349.842834 842.862366,356.847412 
	C842.063477,358.320526 841.222351,359.724518 840.227722,359.843353 
	C832.940796,360.713837 825.599548,361.144318 818.322693,362.080566 
	C812.804810,362.790466 807.189087,363.515442 801.922119,365.192291 
	C796.120972,367.039246 790.781616,370.301727 785.024475,372.333923 
	C781.234558,373.671692 779.561035,375.738190 779.870117,379.604919 
	C779.145508,379.564270 778.420837,379.523651 777.285095,379.143616 
	C776.580872,378.891663 776.287842,378.979095 775.994751,379.066528 
	C761.661987,379.797607 747.329224,380.528717 732.357300,380.962769 
	C727.639221,377.923645 723.436829,377.965271 718.576233,378.677582 
	C711.298523,379.744110 703.814514,379.427582 696.416504,379.636810 
	C693.496643,379.719360 690.571228,379.585358 687.649841,379.635345 
	C681.471985,379.741058 675.295105,379.902893 669.117798,380.041718 
z"/>
<path fill="#ED351C" opacity="1.000000" stroke="none" 
	d="
M892.179199,439.266602 
	C890.112732,436.010895 887.601196,435.086243 883.428955,435.532837 
	C861.415283,437.889191 840.553406,444.986115 819.273621,450.365265 
	C816.401245,451.091339 813.429443,451.921295 810.515564,451.879211 
	C804.992798,451.799438 799.652710,452.031769 794.401855,455.000427 
	C796.046875,447.819183 798.461365,440.707062 799.944214,433.405701 
	C800.742615,429.474396 801.570435,426.579559 805.414917,424.367157 
	C821.499817,415.110535 837.363342,405.469269 853.684509,395.995667 
	C854.061035,396.022339 854.107239,396.007080 854.107239,396.007080 
	C852.268860,405.269104 850.430481,414.531097 848.393311,424.436157 
	C848.152527,425.632507 848.110596,426.185791 848.068604,426.739075 
	C848.312866,426.916992 848.557129,427.094940 848.801392,427.272858 
	C849.069458,426.744781 849.337524,426.216705 849.605591,425.688568 
	C863.428467,413.644348 877.251404,401.600159 891.499634,389.838379 
	C892.784790,390.735504 893.640442,391.878296 894.505310,391.885284 
	C906.507446,391.982361 918.552856,392.499329 930.493774,391.627136 
	C935.451721,391.264954 939.529724,391.583191 943.351501,394.505463 
	C926.162964,409.629150 909.171082,424.447876 892.179199,439.266602 
z"/>
<path fill="#F54815" opacity="1.000000" stroke="none" 
	d="
M943.548157,394.200470 
	C939.529724,391.583191 935.451721,391.264954 930.493774,391.627136 
	C918.552856,392.499329 906.507446,391.982361 894.505310,391.885284 
	C893.640442,391.878296 892.784790,390.735504 891.817566,389.678040 
	C909.026917,373.950226 926.327026,358.646362 943.696777,343.421844 
	C944.868835,342.394562 946.561951,341.358612 948.018860,341.349823 
	C969.779358,341.218109 991.540894,341.258759 1014.026123,341.258759 
	C1011.216553,355.651611 1008.499512,369.570831 1005.186218,383.774658 
	C1001.516174,383.072845 998.292542,380.927032 995.394409,381.301239 
	C983.021362,382.898926 970.789246,385.811432 958.111450,383.709595 
	C957.896790,383.139252 957.762573,382.858429 957.579590,382.614166 
	C957.538330,382.559143 957.284241,382.581360 957.199585,382.652740 
	C952.644226,386.496216 948.096619,390.348816 943.548157,394.200470 
z"/>
<path fill="#B86ED3" opacity="1.000000" stroke="none" 
	d="
M463.033051,636.159241 
	C472.663147,638.862671 482.293243,641.566101 492.630066,644.510132 
	C501.162750,646.332520 508.988708,647.914307 516.814697,649.496094 
	C516.867981,649.232788 516.921204,648.969482 516.974426,648.706116 
	C509.108246,646.979675 501.242035,645.253174 493.375824,643.526733 
	C488.747681,641.856079 484.119507,640.185486 479.386841,637.964355 
	C485.770447,630.193604 492.241425,622.957947 498.754852,615.760620 
	C501.481934,612.747192 504.299164,609.815308 507.075409,606.846375 
	C517.864868,616.693726 531.181335,621.629395 544.944458,624.853699 
	C562.206726,628.897766 579.762207,631.690613 597.545044,635.461182 
	C597.033508,636.851685 596.305298,637.999695 595.277649,638.721436 
	C591.793701,641.168152 588.251099,643.539307 584.644409,645.801575 
	C577.840149,650.069580 570.868530,654.081360 564.193359,658.539246 
	C561.794128,660.141602 560.047974,662.721863 558.003784,664.855835 
	C539.934509,662.448914 521.729004,660.768555 503.837311,657.414246 
	C488.410034,654.521912 473.340118,649.723633 458.260956,645.439697 
	C463.221191,643.816406 462.397583,639.611084 463.033051,636.159241 
z"/>
<path fill="#907DE4" opacity="1.000000" stroke="none" 
	d="
M558.425110,664.934937 
	C560.047974,662.721863 561.794128,660.141602 564.193359,658.539246 
	C570.868530,654.081360 577.840149,650.069580 584.644409,645.801575 
	C588.251099,643.539307 591.793701,641.168152 595.277649,638.721436 
	C596.305298,637.999695 597.033508,636.851685 597.948853,635.564575 
	C629.403198,637.519226 660.806580,639.823364 692.213257,642.082153 
	C697.473083,642.460388 702.747131,642.641479 708.450073,643.307495 
	C704.779541,650.171143 700.593079,656.592468 696.644043,663.156677 
	C695.962585,664.289429 696.288574,666.028259 696.149231,667.487061 
	C685.549072,667.905579 674.948730,668.675415 664.348816,668.670593 
	C641.233948,668.660156 618.111389,668.540344 595.007812,667.895081 
	C582.936584,667.557922 570.899170,666.013306 558.425110,664.934937 
z"/>
<path fill="#76B8EE" opacity="1.000000" stroke="none" 
	d="
M696.521545,667.440186 
	C696.288574,666.028259 695.962585,664.289429 696.644043,663.156677 
	C700.593079,656.592468 704.779541,650.171143 708.909790,643.355713 
	C740.736755,643.424133 772.538696,643.921570 804.342407,644.231995 
	C847.307129,644.651306 890.273193,644.944824 933.238892,645.253296 
	C946.065613,645.345337 958.893250,645.307068 971.720459,645.327393 
	C973.784973,645.330627 975.849548,645.327820 977.910522,646.321411 
	C971.060059,646.761719 964.204285,647.131592 957.360168,647.654785 
	C930.683044,649.694153 904.000671,651.672852 877.337280,653.879944 
	C845.705200,656.498474 814.106873,659.536255 782.463501,662.002747 
	C756.772095,664.005371 731.036316,665.441040 705.318604,667.103210 
	C702.515808,667.284363 699.702393,667.300476 696.521545,667.440186 
z"/>
<path fill="#D71F28" opacity="1.000000" stroke="none" 
	d="
M683.302002,507.208740 
	C685.341431,499.752838 691.445923,500.169128 696.782532,501.226624 
	C702.403259,502.340393 707.389893,501.014069 711.334106,498.046112 
	C716.574036,494.103210 722.328613,493.149780 728.341919,492.070862 
	C737.924927,490.351532 747.476074,488.443390 757.011841,486.475098 
	C765.369141,484.750061 773.658569,482.683929 782.040955,481.101776 
	C784.206299,480.693024 786.664978,481.302856 788.891296,481.845245 
	C798.099060,484.088593 806.923523,482.053223 815.719971,479.652954 
	C819.766663,478.548798 823.535461,478.446686 826.973755,481.400116 
	C827.911682,482.205811 829.287048,482.502289 830.851685,483.060059 
	C817.452148,501.345886 797.858582,508.956573 776.245544,511.701935 
	C748.905396,515.174805 721.485046,514.742920 694.241577,510.028015 
	C690.652832,509.406891 687.147461,508.304688 683.302002,507.208740 
z"/>
<path fill="#202530" opacity="1.000000" stroke="none" 
	d="
M644.716003,533.531433 
	C645.293335,530.864319 645.777832,528.606934 646.313354,526.112244 
	C655.190613,526.112244 663.955322,526.112244 673.307800,526.112244 
	C671.176758,536.361694 669.117065,546.387573 667.004822,556.402466 
	C662.750916,576.571716 658.368896,596.714783 654.294434,616.920105 
	C653.604919,620.339539 652.198059,621.103455 649.012085,621.010986 
	C641.541626,620.794006 634.060608,620.941589 625.773926,620.941589 
	C632.130188,591.603699 638.376709,562.772400 644.716003,533.531433 
z"/>
<path fill="#DE68AF" opacity="1.000000" stroke="none" 
	d="
M506.936035,606.528076 
	C504.299164,609.815308 501.481934,612.747192 498.754852,615.760620 
	C492.241425,622.957947 485.770447,630.193604 479.131744,637.715942 
	C470.474060,635.329651 462.693634,631.302185 456.592712,624.694580 
	C448.561707,615.996460 448.799683,607.276245 456.876953,598.661011 
	C467.475494,587.356567 481.028442,580.588440 494.841766,574.417358 
	C505.117401,569.826782 515.773438,566.087708 526.798645,562.268311 
	C527.911377,564.386169 528.485535,566.205139 529.059692,568.024109 
	C522.930176,572.985474 516.674011,577.801697 510.737610,582.984253 
	C508.556824,584.888062 506.927795,587.534851 505.404694,590.058533 
	C501.998199,595.702759 503.085999,601.104187 506.936035,606.528076 
z"/>
<path fill="#76B8EE" opacity="1.000000" stroke="none" 
	d="
M647.002441,682.000000 
	C654.113220,681.399658 661.218689,680.724731 668.335815,680.212280 
	C696.117981,678.211914 723.920349,676.467041 751.683777,674.236511 
	C778.516907,672.080750 805.316956,669.503418 832.121460,667.003418 
	C862.385254,664.180664 892.630859,661.161804 922.897522,658.371277 
	C946.553223,656.190308 970.229614,654.232178 993.895264,652.158203 
	C995.573364,652.011108 997.239258,651.724976 999.017151,652.393372 
	C987.408813,653.839722 975.802490,655.302490 964.191650,656.728455 
	C946.561707,658.893799 928.910583,660.897278 911.300964,663.216003 
	C884.954407,666.685303 858.654907,670.514465 832.300110,673.917969 
	C808.098938,677.043274 783.869873,679.976318 759.617798,682.676636 
	C741.288025,684.717529 722.917114,686.430603 704.537842,687.971619 
	C686.991333,689.442810 669.410461,690.502808 651.301025,691.334961 
	C645.690979,689.555603 647.154907,685.437805 647.002441,682.000000 
z"/>
<path fill="#F84F15" opacity="1.000000" stroke="none" 
	d="
M531.985107,436.999847 
	C531.190308,437.912964 530.500671,438.954865 529.576477,439.709625 
	C528.119934,440.899170 526.429993,442.913300 524.970947,442.804626 
	C516.979553,442.209503 509.916931,445.319763 502.838776,448.011536 
	C493.303131,451.637878 483.416595,451.536865 473.041687,451.881989 
	C472.895447,440.752563 478.139648,432.810944 487.334198,426.667542 
	C493.473053,422.565826 498.747742,417.170685 504.718689,412.237091 
	C506.184387,416.903046 507.800262,417.202423 511.596954,415.158539 
	C514.894531,413.383301 518.923706,412.850189 522.695251,412.097626 
	C529.272583,410.785248 535.871582,408.659424 542.559143,411.860107 
	C543.330444,412.229279 544.518372,411.863953 545.481140,411.675598 
	C553.045349,410.195435 553.923767,410.955597 552.930298,419.028076 
	C545.891052,425.506409 538.938110,431.253143 531.985107,436.999847 
z"/>
<path fill="#DE68AF" opacity="1.000000" stroke="none" 
	d="
M462.664490,636.068848 
	C462.397583,639.611084 463.221191,643.816406 457.998444,645.187683 
	C444.554321,641.287292 432.327271,635.778198 422.608154,625.899414 
	C415.135925,618.304443 414.610046,608.592957 421.219879,600.188354 
	C430.808441,587.996094 444.206146,581.202332 458.030701,575.288574 
	C497.822296,558.266907 539.622742,547.859497 581.632568,538.182678 
	C584.533997,537.514343 587.417419,536.767822 590.443665,536.568420 
	C573.145752,541.387939 555.788391,546.005615 538.563477,551.073364 
	C511.530914,559.026367 484.969849,568.325562 460.634888,582.810242 
	C453.856018,586.845154 447.378693,591.909729 442.001129,597.659851 
	C432.694061,607.611511 434.586243,619.241699 446.030884,626.744202 
	C451.234253,630.155273 456.861115,632.920349 462.664490,636.068848 
z"/>
<path fill="#F84F15" opacity="1.000000" stroke="none" 
	d="
M780.201660,379.743225 
	C779.561035,375.738190 781.234558,373.671692 785.024475,372.333923 
	C790.781616,370.301727 796.120972,367.039246 801.922119,365.192291 
	C807.189087,363.515442 812.804810,362.790466 818.322693,362.080566 
	C825.599548,361.144318 832.940796,360.713837 840.227722,359.843353 
	C841.222351,359.724518 842.063477,358.320526 843.038330,357.129517 
	C851.930115,362.742706 855.443359,371.495483 855.818970,381.746277 
	C855.861450,382.905853 854.888184,384.539307 853.887329,385.221680 
	C850.340881,387.639801 846.578125,389.740662 842.187256,392.003662 
	C840.652283,392.698547 839.827393,393.351562 839.002502,394.004578 
	C839.002502,394.004578 839.000000,394.000000 838.628784,393.996887 
	C835.629028,392.771088 833.100952,390.903809 830.348572,390.474396 
	C826.051025,389.803894 821.602112,390.060455 817.216309,390.011414 
	C812.339233,389.956909 807.460999,390.000061 802.583313,390.000671 
	C799.290955,383.939728 793.060791,382.930786 787.291260,381.210175 
	C785.101257,380.557068 782.789551,380.312347 780.201660,379.743225 
z"/>
<path fill="#DE2224" opacity="1.000000" stroke="none" 
	d="
M577.411560,482.079285 
	C587.984253,480.826752 598.908630,479.315155 609.880737,478.776276 
	C613.757996,478.585846 617.722595,480.897797 621.705750,481.813263 
	C623.514282,482.228912 625.465027,482.025970 627.728271,482.078064 
	C625.963806,492.426910 623.822327,502.801361 621.627441,513.434753 
	C605.670227,513.434753 589.953491,513.434753 573.489685,513.434753 
	C574.484131,507.965912 575.455872,502.523926 576.467773,497.089417 
	C577.251099,492.882111 578.151489,488.694885 578.828491,484.471252 
	C578.937866,483.788696 578.153381,482.962921 577.411560,482.079285 
z"/>
<path fill="#F54815" opacity="1.000000" stroke="none" 
	d="
M700.233032,434.670776 
	C698.579773,434.782867 697.106873,434.621735 695.651794,434.360992 
	C690.284485,433.399109 685.163574,432.622284 679.768066,435.344604 
	C676.221802,437.133881 671.796997,437.235443 667.739685,437.943939 
	C663.394226,438.702820 659.018250,439.287231 654.248413,439.937286 
	C656.321899,426.980591 658.802490,414.034332 661.579956,401.187561 
	C662.096497,402.365387 662.316284,403.443695 662.429199,403.997620 
	C665.445862,403.997620 668.089600,403.743225 670.669373,404.041656 
	C681.877380,405.338287 693.066772,406.795990 704.186035,408.185577 
	C705.184448,406.986481 706.389038,405.539856 707.593628,404.093231 
	C705.203003,414.179443 702.812317,424.265625 700.233032,434.670776 
z"/>
<path fill="#ED351C" opacity="1.000000" stroke="none" 
	d="
M958.174316,384.012268 
	C970.789246,385.811432 983.021362,382.898926 995.394409,381.301239 
	C998.292542,380.927032 1001.516174,383.072845 1004.996826,384.101532 
	C1003.384399,394.265411 1001.365234,404.387024 999.172729,414.794312 
	C986.559082,414.196320 974.120667,413.284485 961.676025,412.467194 
	C960.236572,412.372650 958.604370,413.280579 957.347107,412.863220 
	C955.959045,412.402466 954.900085,410.950104 953.556030,409.121155 
	C955.000977,400.212555 956.587646,392.112427 958.174316,384.012268 
z"/>
<path fill="#F84F15" opacity="1.000000" stroke="none" 
	d="
M707.776367,403.835205 
	C706.389038,405.539856 705.184448,406.986481 704.186035,408.185577 
	C693.066772,406.795990 681.877380,405.338287 670.669373,404.041656 
	C668.089600,403.743225 665.445862,403.997620 662.429199,403.997620 
	C662.316284,403.443695 662.096497,402.365387 661.808655,400.858521 
	C664.043518,393.806061 666.346497,387.182159 668.883606,380.299988 
	C675.295105,379.902893 681.471985,379.741058 687.649841,379.635345 
	C690.571228,379.585358 693.496643,379.719360 696.416504,379.636810 
	C703.814514,379.427582 711.298523,379.744110 718.576233,378.677582 
	C723.436829,377.965271 727.639221,377.923645 731.930664,380.984070 
	C720.064331,384.365509 712.758484,392.610687 707.776367,403.835205 
z"/>
<path fill="#F54815" opacity="1.000000" stroke="none" 
	d="
M802.591675,390.346405 
	C807.460999,390.000061 812.339233,389.956909 817.216309,390.011414 
	C821.602112,390.060455 826.051025,389.803894 830.348572,390.474396 
	C833.100952,390.903809 835.629028,392.771088 838.631348,393.998535 
	C826.138306,401.753265 813.275818,409.510223 800.402771,417.249634 
	C795.551880,420.166046 790.676636,423.041748 785.109192,425.984558 
	C783.598816,426.669678 782.791809,427.306274 781.984802,427.942871 
	C781.544250,428.290710 781.103760,428.638550 780.015869,429.006165 
	C778.577698,429.683380 777.786926,430.340759 776.996094,430.998138 
	C776.575500,431.336578 776.154907,431.675049 775.051270,432.009155 
	C773.597229,431.335175 772.141235,430.639252 772.165710,430.000214 
	C772.333923,425.623840 769.904297,424.228943 766.074158,423.907166 
	C765.340698,423.845551 764.685608,422.851318 763.994324,422.287323 
	C775.818787,413.719482 787.654480,405.166901 799.456726,396.568604 
	C801.403137,395.150543 803.936462,393.921600 802.591675,390.346405 
z"/>
<path fill="#278AF9" opacity="1.000000" stroke="none" 
	d="
M1057.968994,390.945312 
	C1058.149536,387.965271 1058.519897,384.982513 1058.476562,382.005707 
	C1058.320679,371.282745 1054.379761,367.098694 1042.806396,365.090942 
	C1041.285645,364.827148 1039.770020,364.532928 1037.849854,363.470306 
	C1061.370483,358.411713 1071.613037,341.650879 1077.448730,319.279694 
	C1077.448730,323.212189 1077.448853,325.699707 1077.448608,328.187225 
	C1077.448364,330.683411 1077.384521,333.181458 1077.458496,335.675415 
	C1077.783569,346.631317 1082.250854,352.342194 1092.888794,354.635193 
	C1098.878174,355.926178 1105.014648,356.534302 1111.285645,357.480347 
	C1111.196533,357.309662 1111.264526,357.439789 1111.332520,357.569885 
	C1111.184814,357.494659 1111.020264,357.331940 1110.891968,357.356720 
	C1104.527954,358.587616 1098.149292,359.750824 1091.809204,361.095795 
	C1075.234131,364.611908 1064.741821,375.154633 1058.133301,390.625519 
	C1057.954224,390.925049 1057.969116,390.945312 1057.968994,390.945312 
z"/>
<path fill="#907DE4" opacity="1.000000" stroke="none" 
	d="
M646.534424,681.966919 
	C647.154907,685.437805 645.690979,689.555603 650.865173,691.252686 
	C609.434692,693.625854 567.970520,694.682556 530.186646,683.513428 
	C567.040710,683.011047 606.553528,682.472412 646.534424,681.966919 
z"/>
<path fill="#ED351C" opacity="1.000000" stroke="none" 
	d="
M763.687256,422.398743 
	C764.685608,422.851318 765.340698,423.845551 766.074158,423.907166 
	C769.904297,424.228943 772.333923,425.623840 772.165710,430.000214 
	C772.141235,430.639252 773.597229,431.335175 774.775391,432.032471 
	C755.849976,443.883881 736.516724,455.706390 717.185913,467.532959 
	C715.069153,468.827972 712.966736,470.146423 710.614990,471.742249 
	C706.903687,471.091187 703.434998,470.151825 699.869385,468.788116 
	C720.974976,453.079224 742.177612,437.794708 763.687256,422.398743 
z"/>
<path fill="#F84F15" opacity="1.000000" stroke="none" 
	d="
M641.817383,407.634338 
	C635.130188,404.048798 628.221069,407.135132 621.485779,407.047180 
	C612.981873,406.936127 604.473511,407.159882 595.633118,407.242340 
	C595.633118,406.350403 595.633118,404.164368 595.510986,401.547546 
	C595.388916,401.116760 595.357117,401.150482 595.759521,400.934814 
	C596.412903,398.299438 596.663818,395.879730 596.838135,393.128357 
	C597.026978,391.487793 597.292419,390.178894 597.557861,388.870026 
	C602.577393,389.129272 607.594238,389.486664 612.617126,389.619781 
	C617.544861,389.750458 622.488159,389.846863 627.407288,389.605713 
	C633.318726,389.315918 639.211914,388.653412 645.444702,388.080627 
	C644.502502,394.425171 643.228577,400.841431 641.817383,407.634338 
z"/>
<path fill="#76B8EE" opacity="1.000000" stroke="none" 
	d="
M1108.063965,498.014038 
	C1082.273926,502.719696 1057.404175,497.252380 1032.401978,494.558807 
	C1059.701172,493.868378 1087.191895,486.749481 1114.230347,497.459747 
	C1112.323120,497.637451 1110.415894,497.815125 1108.063965,498.014038 
z"/>
<path fill="#FC5E11" opacity="1.000000" stroke="none" 
	d="
M455.797791,533.360046 
	C450.358917,532.973206 445.020447,534.511292 440.606689,530.675110 
	C458.530518,523.537537 476.650238,523.183228 495.062592,527.594604 
	C494.998627,528.047241 494.979279,528.184204 494.959930,528.321106 
	C494.869385,528.232605 494.766724,528.057251 494.690063,528.067932 
	C487.475281,529.077271 480.264984,530.118713 473.048798,531.117737 
	C467.458954,531.891541 461.862000,532.613464 455.797791,533.360046 
z"/>
<path fill="#DE68AF" opacity="1.000000" stroke="none" 
	d="
M426.061493,406.055603 
	C434.680237,406.147949 443.304291,406.108002 451.912750,406.455109 
	C453.453674,406.517242 454.930054,408.179718 456.436249,409.103271 
	C455.020355,410.338470 453.718292,412.462280 452.169556,412.660706 
	C443.816376,413.730804 435.401978,414.323303 426.521545,414.646667 
	C426.043457,411.493744 426.052460,408.774658 426.061493,406.055603 
z"/>
<path fill="#ED351C" opacity="1.000000" stroke="none" 
	d="
M527.092163,344.214600 
	C528.442078,342.732697 529.556458,341.523468 530.984314,339.974091 
	C534.973206,345.302551 539.755249,348.984985 544.624756,348.412506 
	C541.776672,350.020782 537.557983,352.648010 533.100403,354.774658 
	C531.715759,355.435272 529.334045,355.326599 528.018250,354.544617 
	C524.984192,352.741486 522.323669,350.309692 520.052063,348.551270 
	C521.803223,347.505371 524.329956,345.996307 527.092163,344.214600 
z"/>
<path fill="#B86ED3" opacity="1.000000" stroke="none" 
	d="
M529.421143,568.046631 
	C528.485535,566.205139 527.911377,564.386169 527.185120,562.236938 
	C540.072937,557.540833 553.110840,553.168884 566.163879,548.842590 
	C566.497375,548.732117 566.997009,549.122925 567.412170,549.277283 
	C554.808105,555.571655 542.295349,561.820435 529.421143,568.046631 
z"/>
<path fill="#B86ED3" opacity="1.000000" stroke="none" 
	d="
M425.594543,405.997223 
	C426.052460,408.774658 426.043457,411.493744 426.061829,414.607239 
	C421.792633,414.905396 417.432068,415.206451 413.228882,414.529785 
	C411.382477,414.232544 409.856750,411.943237 408.185425,410.558411 
	C409.721252,409.259125 411.104645,407.146027 412.823578,406.823944 
	C416.839264,406.071655 421.016083,406.179413 425.594543,405.997223 
z"/>
<path fill="#ED351C" opacity="1.000000" stroke="none" 
	d="
M1065.854736,432.407471 
	C1064.486206,432.146423 1063.517700,431.974060 1062.549194,431.801697 
	C1070.504272,428.668213 1078.577026,428.124329 1087.242920,429.580414 
	C1084.460571,432.895935 1077.609131,433.694977 1065.854736,432.407471 
z"/>
<path fill="#DE68AF" opacity="1.000000" stroke="none" 
	d="
M435.650726,456.063568 
	C441.825592,452.828308 447.912109,454.327118 454.195099,455.527985 
	C449.192108,459.242859 440.253540,459.601562 435.650726,456.063568 
z"/>
<path fill="#F84F15" opacity="1.000000" stroke="none" 
	d="
M646.200195,385.709991 
	C646.145325,384.812164 646.268372,383.619659 646.626343,382.235291 
	C646.700195,383.167389 646.539185,384.291351 646.200195,385.709991 
z"/>
<path fill="#DE2224" opacity="1.000000" stroke="none" 
	d="
M861.428589,482.029053 
	C862.834290,481.765930 864.660522,481.593140 866.739502,481.682312 
	C865.277832,482.002655 863.563416,482.061005 861.428589,482.029053 
z"/>
<path fill="#ED351C" opacity="1.000000" stroke="none" 
	d="
M777.305054,430.947296 
	C777.786926,430.340759 778.577698,429.683380 779.729614,429.027191 
	C779.265198,429.651062 778.439575,430.273743 777.305054,430.947296 
z"/>
<path fill="#F54815" opacity="1.000000" stroke="none" 
	d="
M839.319580,393.956604 
	C839.827393,393.351562 840.652283,392.698547 841.848389,392.061340 
	C841.358582,392.687653 840.497620,393.298157 839.319580,393.956604 
z"/>
<path fill="#ED351C" opacity="1.000000" stroke="none" 
	d="
M782.294312,427.893005 
	C782.791809,427.306274 783.598816,426.669678 784.765808,426.037903 
	C784.285034,426.642853 783.444397,427.243011 782.294312,427.893005 
z"/>
<path fill="#278AF9" opacity="1.000000" stroke="none" 
	d="
M1057.950562,390.906921 
	C1057.819702,390.986359 1057.692505,391.083893 1057.565308,391.181396 
	C1057.713257,391.193451 1057.861084,391.205566 1057.989014,391.081482 
	C1057.969116,390.945312 1057.954224,390.925049 1057.950562,390.906921 
z"/>
<path fill="#F84F15" opacity="1.000000" stroke="none" 
	d="
M510.206207,407.575623 
	C510.144501,407.936462 509.828247,408.415436 509.169952,408.906311 
	C509.202515,408.510101 509.577087,408.101929 510.206207,407.575623 
z"/>
<path fill="#DE2224" opacity="1.000000" stroke="none" 
	d="
M869.332153,482.021729 
	C869.566162,481.793915 870.128174,481.649017 870.840637,481.716064 
	C870.547485,481.986908 870.103821,482.045776 869.332153,482.021729 
z"/>
<path fill="#ED351C" opacity="1.000000" stroke="none" 
	d="
M854.048462,396.039551 
	C854.035828,396.056793 854.200195,395.906250 854.200195,395.906250 
	C854.200195,395.906250 853.956238,395.938690 854.031738,395.972900 
	C854.107239,396.007080 854.061035,396.022339 854.048462,396.039551 
z"/>
<path fill="#F84F15" opacity="1.000000" stroke="none" 
	d="
M512.597900,405.715759 
	C512.666321,405.947632 512.460754,406.295898 511.942688,406.699097 
	C511.861450,406.446777 512.092712,406.139465 512.597900,405.715759 
z"/>
<path fill="#F84F15" opacity="1.000000" stroke="none" 
	d="
M511.448639,406.663147 
	C511.518005,406.930084 511.343811,407.265198 510.865509,407.535583 
	C510.775940,407.224304 510.990509,406.977814 511.448639,406.663147 
z"/>
<path fill="#F84F15" opacity="1.000000" stroke="none" 
	d="
M776.243103,379.182373 
	C776.287842,378.979095 776.580872,378.891663 776.951050,378.995728 
	C776.849182,379.224213 776.670288,379.261200 776.243103,379.182373 
z"/>
<path fill="#FCFAFD" opacity="1.000000" stroke="none" 
	d="
M958.111450,383.709595 
	C956.587646,392.112427 955.000977,400.212555 953.431885,408.677765 
	C951.426086,419.106140 949.402710,429.169434 947.293762,439.658173 
	C929.115112,439.658173 910.992859,439.658173 892.524902,439.462402 
	C909.171082,424.447876 926.162964,409.629150 943.351501,394.505463 
	C948.096619,390.348816 952.644226,386.496216 957.199585,382.652740 
	C957.284241,382.581360 957.538330,382.559143 957.579590,382.614166 
	C957.762573,382.858429 957.896790,383.139252 958.111450,383.709595 
z"/>
<path fill="#FCFAFD" opacity="1.000000" stroke="none" 
	d="
M697.789551,581.998047 
	C700.633545,571.811279 708.061218,567.788147 717.273926,567.285461 
	C728.190125,566.689819 739.163635,567.145508 750.808960,567.145508 
	C748.758606,577.110291 746.874084,586.605469 744.762878,596.050049 
	C744.531860,597.083618 743.144897,598.141052 742.045105,598.654846 
	C729.951233,604.306091 717.258423,604.464294 704.550659,601.781494 
	C698.570984,600.519104 695.880249,595.623535 696.369751,589.205750 
	C696.544800,586.911133 697.229675,584.655457 697.789551,581.998047 
z"/>
<path fill="#FCFAFD" opacity="1.000000" stroke="none" 
	d="
M741.118042,614.094116 
	C741.136047,613.710083 741.328491,613.481812 741.520874,613.253540 
	C741.639648,613.524170 741.758423,613.794800 741.781372,614.284058 
	C741.685608,614.502747 741.292358,614.249878 741.118042,614.094116 
z"/>
<path fill="#FCFAFD" opacity="1.000000" stroke="none" 
	d="
M597.545532,388.479675 
	C597.292419,390.178894 597.026978,391.487793 596.588623,393.495605 
	C596.062866,396.513184 595.710022,398.831848 595.357117,401.150482 
	C595.357117,401.150482 595.388916,401.116760 595.358276,401.115173 
	C592.874390,412.792664 590.514954,424.493408 587.836548,436.120697 
	C587.537109,437.420502 585.437866,439.225128 584.155396,439.239838 
	C567.340393,439.432922 550.522156,439.358490 533.704956,439.293335 
	C532.824280,439.289948 531.945618,438.767944 531.065979,438.487396 
	C531.115295,438.356415 531.145386,438.213257 531.218811,438.097565 
	C531.307068,437.958496 531.432190,437.842834 531.763245,437.358459 
	C538.938110,431.253143 545.891052,425.506409 552.940308,419.435638 
	C564.195068,410.103363 575.372620,401.118622 586.501892,392.074493 
	C590.520386,388.808899 594.423096,385.400818 599.390686,381.202301 
	C598.524353,384.414642 598.028809,386.251984 597.545532,388.479675 
z"/>
<path fill="#FCFAFD" opacity="1.000000" stroke="none" 
	d="
M910.294067,595.514893 
	C913.649658,593.880249 916.737915,591.566223 919.922180,591.425476 
	C930.690735,590.949524 941.493225,591.243958 952.309387,591.243958 
	C950.827820,599.645264 947.394043,604.035278 939.473389,605.047058 
	C931.787964,606.028687 923.889038,606.138245 916.147766,605.639282 
	C909.544739,605.213623 907.839905,601.722961 910.294067,595.514893 
z"/>
<path fill="#FCFAFD" opacity="1.000000" stroke="none" 
	d="
M849.794006,578.678345 
	C836.741882,578.678528 824.167480,578.678528 811.077332,578.678528 
	C813.654175,571.643066 818.262756,567.409790 824.836792,566.595825 
	C832.002869,565.708679 839.395142,565.467834 846.569275,566.168640 
	C853.368835,566.832886 855.784302,571.302490 854.589478,578.678162 
	C853.198853,578.678162 851.735291,578.678162 849.794006,578.678345 
z"/>
<path fill="#FCFAFD" opacity="1.000000" stroke="none" 
	d="
M849.346680,425.404236 
	C849.337524,426.216705 849.069458,426.744781 848.801392,427.272858 
	C848.557129,427.094940 848.312866,426.916992 848.068604,426.739075 
	C848.110596,426.185791 848.152527,425.632507 848.364624,424.832184 
	C848.719116,424.763367 848.903442,424.941589 849.346680,425.404236 
z"/>
<path fill="#FCFAFD" opacity="1.000000" stroke="none" 
	d="
M493.216858,643.725403 
	C501.242035,645.253174 509.108246,646.979675 516.974426,648.706116 
	C516.921204,648.969482 516.867981,649.232788 516.814697,649.496094 
	C508.988708,647.914307 501.162750,646.332520 493.034180,644.532593 
	C492.840332,644.184387 492.949097,644.054260 493.216858,643.725403 
z"/>
<path fill="#F54815" opacity="1.000000" stroke="none" 
	d="
M595.759521,400.934814 
	C595.710022,398.831848 596.062866,396.513184 596.665283,393.827301 
	C596.663818,395.879730 596.412903,398.299438 595.759521,400.934814 
z"/>
</svg>